<svg width="158" height="158" viewBox="0 0 158 158" fill="none" xmlns="http://www.w3.org/2000/svg">
<path d="M110.009 56.084C110.96 55.5227 111.28 54.2934 110.673 53.3708C107.267 48.1962 102.721 43.8588 97.3724 40.6982C91.4492 37.198 84.7359 35.2553 77.8589 35.0512C70.9819 34.8472 64.1653 36.3885 58.045 39.5314C51.9248 42.6743 46.7004 47.3163 42.8594 53.0243C39.0183 58.7323 36.6858 65.3203 36.0794 72.1736C35.473 79.0268 36.6125 85.922 39.3916 92.2158C42.1708 98.5096 46.4989 103.997 51.9722 108.165C56.9143 111.93 62.6447 114.508 68.721 115.714C69.8045 115.929 70.8226 115.169 70.9842 114.077L73.9283 94.1718C74.0899 93.0792 73.3301 92.0742 72.2647 91.7825C70.2158 91.2214 68.2874 90.2708 66.5876 88.9762C64.3557 87.2763 62.5908 85.0387 61.4575 82.4723C60.3243 79.9058 59.8596 77.0941 60.1069 74.2995C60.3542 71.5049 61.3053 68.8185 62.8716 66.4909C64.4379 64.1634 66.5682 62.2705 69.0639 60.9889C71.5596 59.7073 74.3393 59.0788 77.1435 59.162C79.9478 59.2452 82.6853 60.0374 85.1006 61.4647C86.9401 62.5517 88.5471 63.9802 89.8385 65.6669C90.5099 66.5439 91.7271 66.8692 92.6784 66.308L110.009 56.084Z" fill="#9B9AF7"/>
<path d="M75.2158 117.359C75.1137 118.459 75.9227 119.439 77.0262 119.487C83.7418 119.778 90.4366 118.404 96.5082 115.471C103.181 112.249 108.848 107.266 112.899 101.061C116.951 94.8565 119.232 87.6639 119.498 80.2583C119.741 73.52 118.306 66.8378 115.337 60.8069C114.85 59.8159 113.627 59.4693 112.662 60.0052L100.747 66.6156C99.7808 67.1515 99.4409 68.366 99.8913 69.3746C101.326 72.5865 102.011 76.0921 101.884 79.625C101.733 83.8258 100.439 87.9059 98.1407 91.4257C95.8427 94.9455 92.628 97.7716 88.8427 99.5998C85.6594 101.137 82.1741 101.92 78.6567 101.899C77.5521 101.892 76.577 102.692 76.4749 103.792L75.2158 117.359Z" fill="#EF8BF8"/>
</svg>
