<svg width="260" height="592" viewBox="0 0 260 592" fill="none" xmlns="http://www.w3.org/2000/svg">
<path d="M44.9384 478.708V587.927C44.9384 590.136 43.1475 591.927 40.9384 591.927H4C1.79086 591.927 7.139e-09 590.136 1.59454e-08 587.927L2.66259e-06 -76C2.6714e-06 -78.2092 1.79086 -80 4 -80H40.9384C43.1475 -80 44.9384 -78.2091 44.9384 -76L44.9384 478.708Z" fill="white"/>
<path d="M189.771 585.234C192.109 587.803 190.286 591.927 186.813 591.927H133.625C132.459 591.927 131.351 591.418 130.591 590.533L48.9658 495.509C48.3426 494.783 48 493.859 48 492.902V480.114C48 479.204 48.3104 478.321 48.8798 477.611L118.99 390.211C119.75 389.264 120.897 388.714 122.111 388.714H172.518C175.96 388.714 177.794 392.772 175.521 395.356L99.9419 481.246C98.5956 482.776 98.6148 485.074 99.9866 486.581L189.771 585.234Z" fill="url(#paint0_linear_581_1268)"/>
<rect x="228" y="559.927" width="32" height="32" rx="4" fill="url(#paint1_linear_581_1268)"/>
<defs>
<linearGradient id="paint0_linear_581_1268" x1="173.462" y1="478.727" x2="47.8617" y2="478.727" gradientUnits="userSpaceOnUse">
<stop offset="0.373082" stop-color="white"/>
<stop offset="1" stop-color="#5E5E5E"/>
</linearGradient>
<linearGradient id="paint1_linear_581_1268" x1="237.6" y1="566.727" x2="228" y2="591.927" gradientUnits="userSpaceOnUse">
<stop stop-color="white"/>
<stop offset="1" stop-color="white" stop-opacity="0.8"/>
</linearGradient>
</defs>
</svg>
