<svg width="772" height="433" viewBox="0 0 772 433" fill="none" xmlns="http://www.w3.org/2000/svg">
<path d="M741.33 140.397C745.425 159.522 739.473 179.906 725.093 200.422C710.712 220.939 687.929 241.544 658.463 261.072C599.534 300.125 513.964 334.809 415.722 355.844C317.479 376.879 225.209 380.274 155.456 368.773C120.578 363.023 91.3559 353.552 69.8349 340.723C48.3147 327.894 34.538 311.734 30.4429 292.608C26.3479 273.483 32.2999 253.099 46.6804 232.582C61.0615 212.066 83.8439 191.46 113.31 171.933C172.239 132.88 257.809 98.1958 356.051 77.1606C454.294 56.1254 546.564 52.731 616.317 64.2315C651.195 69.982 680.417 79.4522 701.938 92.2819C723.458 105.111 737.235 121.271 741.33 140.397Z" stroke="#282828"/>
<path d="M747.586 180.371C749.53 199.833 741.35 219.43 724.778 238.221C708.206 257.012 683.275 274.958 651.821 291.089C588.917 323.351 500.022 348.31 400.05 358.297C300.079 368.283 208.003 361.402 139.96 342.22C105.937 332.629 77.9489 319.97 57.9871 304.828C38.0259 289.686 26.1306 272.095 24.1865 252.633C22.2424 233.171 30.423 213.575 46.9945 194.784C63.5667 175.993 88.498 158.047 119.952 141.915C182.856 109.653 271.75 84.6945 371.722 74.7081C471.694 64.7216 563.769 71.603 631.812 90.7845C665.835 100.376 693.824 113.035 713.786 128.177C733.747 143.318 745.642 160.909 747.586 180.371Z" stroke="#282828"/>
<path d="M698.443 68.5265H694.556L691.116 82.6453L682.02 87.7564L678.917 89.5L682.02 91.2436L691.116 96.3547L694.556 110.474H698.443L701.883 96.3547L710.979 91.2436L714.082 89.5L710.979 87.7564L701.883 82.6453L698.443 68.5265Z" fill="#EF8BF8" stroke="#111111" stroke-width="4"/>
<path d="M153.942 330.521H150.058L147.836 339.528L142.029 342.751L138.879 344.5L142.029 346.249L147.836 349.472L150.058 358.479H153.942L156.164 349.472L161.971 346.249L165.121 344.5L161.971 342.751L156.164 339.528L153.942 330.521Z" fill="#9B9AF7" stroke="#111111" stroke-width="4"/>
</svg>
