<svg width="1440" height="433" viewBox="0 0 1440 433" fill="none" xmlns="http://www.w3.org/2000/svg">
<mask id="mask0_259_247" style="mask-type:alpha" maskUnits="userSpaceOnUse" x="0" y="0" width="1440" height="433">
<rect width="1440" height="433" fill="#D9D9D9"/>
</mask>
<g mask="url(#mask0_259_247)">
<mask id="mask1_259_247" style="mask-type:alpha" maskUnits="userSpaceOnUse" x="0" y="0" width="1440" height="433">
<rect width="1440" height="433" fill="#D9D9D9"/>
</mask>
<g mask="url(#mask1_259_247)">
<path d="M-229.089 284.03C-229.356 281.837 -227.789 279.883 -225.591 279.666L1483.27 110.993C1485.47 110.776 1487.47 112.378 1487.73 114.571L1497.99 199.077C1503.31 242.938 1471.98 282.012 1428.01 286.352L-205.216 447.56C-207.415 447.777 -209.413 446.175 -209.679 443.982L-229.089 284.03Z" fill="#161615"/>
<path opacity="0.5" d="M-395.914 -25.1841C-395.81 -27.3908 -393.939 -29.0553 -391.735 -28.9019L1621.97 111.297C1624.18 111.451 1625.88 113.364 1625.77 115.57L1613.95 366.274C1611.87 410.408 1574.45 443.698 1530.37 440.629L-407.518 305.709C-409.722 305.555 -411.424 303.642 -411.32 301.435L-395.914 -25.1841Z" fill="#111111"/>
</g>
</g>
</svg>
