<svg width="1068" height="599" viewBox="0 0 1068 599" fill="none" xmlns="http://www.w3.org/2000/svg">
<path fill-rule="evenodd" clip-rule="evenodd" d="M473.604 210.496C471.406 210.719 470.148 212.614 470.793 214.726L522.287 383.319C522.932 385.432 525.237 386.964 527.435 386.74L637.653 375.52C639.851 375.297 641.109 373.403 640.464 371.29L588.97 202.697C588.325 200.584 586.02 199.052 583.822 199.276L473.604 210.496ZM641.604 295.235C640.959 293.122 642.218 291.228 644.415 291.005L754.634 279.785C756.831 279.561 759.136 281.093 759.781 283.205L782.276 356.854C782.922 358.967 781.663 360.861 779.465 361.085L669.247 372.304C667.049 372.528 664.745 370.997 664.099 368.884L641.604 295.235ZM802.171 342.201C801.526 340.088 802.784 338.194 804.982 337.97L915.2 326.751C917.398 326.527 919.702 328.058 920.348 330.171L924.089 342.419C924.734 344.531 923.475 346.426 921.278 346.649L811.06 357.869C808.862 358.092 806.557 356.561 805.912 354.448L802.171 342.201ZM342.873 274.644C342.227 272.532 343.486 270.637 345.684 270.414L455.902 259.194C458.099 258.97 460.404 260.502 461.049 262.615L498.652 385.725C499.297 387.838 498.038 389.732 495.841 389.956L385.623 401.175C383.425 401.399 381.12 399.868 380.475 397.755L342.873 274.644ZM233.739 382.636C231.541 382.86 230.282 384.754 230.928 386.867L238.662 412.191C239.308 414.303 241.613 415.835 243.81 415.611L354.028 404.392C356.226 404.168 357.485 402.274 356.839 400.161L349.105 374.837C348.459 372.725 346.155 371.193 343.957 371.417L233.739 382.636Z" fill="#111111"/>
<path fill-rule="evenodd" clip-rule="evenodd" d="M480.604 187.496C478.406 187.719 477.148 189.614 477.793 191.726L529.287 360.319C529.932 362.432 532.237 363.964 534.435 363.74L644.653 352.52C646.851 352.297 648.109 350.403 647.464 348.29L595.97 179.697C595.325 177.584 593.02 176.053 590.822 176.276L480.604 187.496ZM648.605 272.235C647.959 270.122 649.218 268.228 651.416 268.005L761.634 256.785C763.831 256.561 766.136 258.093 766.781 260.206L789.276 333.854C789.922 335.967 788.663 337.861 786.465 338.085L676.247 349.304C674.049 349.528 671.745 347.997 671.099 345.884L648.605 272.235ZM809.171 319.201C808.526 317.088 809.784 315.194 811.982 314.97L922.2 303.751C924.398 303.527 926.703 305.058 927.348 307.171L931.089 319.419C931.734 321.531 930.475 323.426 928.278 323.649L818.06 334.869C815.862 335.092 813.557 333.561 812.912 331.448L809.171 319.201ZM349.873 251.644C349.227 249.532 350.486 247.637 352.684 247.414L462.902 236.194C465.099 235.971 467.404 237.502 468.05 239.615L505.652 362.725C506.297 364.838 505.039 366.732 502.841 366.956L392.623 378.176C390.425 378.399 388.12 376.868 387.475 374.755L349.873 251.644ZM240.739 359.636C238.541 359.86 237.283 361.754 237.928 363.867L245.663 389.191C246.308 391.303 248.613 392.835 250.81 392.611L361.028 381.392C363.226 381.168 364.485 379.274 363.839 377.161L356.105 351.837C355.459 349.725 353.155 348.193 350.957 348.417L240.739 359.636Z" fill="#E4FC71"/>
<path d="M283.16 444.8V461H280.808V447.152H279.8V444.8H283.16ZM290.585 444.44C293.585 444.44 295.553 446.096 295.553 448.592C295.553 450.488 294.473 451.904 292.649 452.336V452.384C294.881 452.648 296.129 454.112 296.129 456.488C296.129 459.512 294.113 461.36 290.777 461.36C287.441 461.36 285.425 459.608 285.329 456.656H287.681C287.801 458.24 288.953 459.152 290.777 459.152C292.673 459.152 293.657 458.192 293.657 456.344C293.657 454.352 292.529 453.536 289.841 453.584H289.073V451.472H289.841C292.001 451.472 293.105 450.632 293.105 449C293.105 447.488 292.193 446.648 290.537 446.648C288.857 446.648 287.873 447.464 287.825 448.928H285.473C285.569 446.168 287.537 444.44 290.585 444.44ZM311.266 453.488V455.792H305.002V453.488H311.266ZM324.457 444.8V461H322.105V447.152H321.097V444.8H324.457ZM336.956 444.8V446.84L330.452 461H327.956L334.436 447.08H326.876V444.8H336.956Z" fill="#FAF9F6"/>
<path d="M427.16 444.8V461H424.808V447.152H423.8V444.8H427.16ZM435.696 461.36C432.312 461.36 430.176 459.488 430.176 456.512C430.176 454.448 431.304 452.888 433.152 452.336V452.288C431.64 451.832 430.632 450.392 430.632 448.712C430.632 446.144 432.648 444.44 435.696 444.44C438.744 444.44 440.76 446.144 440.76 448.712C440.76 450.392 439.752 451.832 438.24 452.288V452.336C440.088 452.888 441.216 454.448 441.216 456.512C441.216 459.488 439.08 461.36 435.696 461.36ZM435.696 451.28C437.28 451.28 438.288 450.368 438.288 448.904C438.288 447.44 437.304 446.528 435.696 446.528C434.088 446.528 433.104 447.44 433.104 448.904C433.104 450.368 434.112 451.28 435.696 451.28ZM435.696 459.272C437.64 459.272 438.744 458.192 438.744 456.32C438.744 454.544 437.568 453.416 435.696 453.416C433.824 453.416 432.648 454.544 432.648 456.32C432.648 458.192 433.752 459.272 435.696 459.272ZM456.367 453.488V455.792H450.103V453.488H456.367ZM465.118 461V459.272L470.71 452.936C472.27 451.184 472.822 450.176 472.822 449.072C472.822 447.584 471.838 446.648 470.278 446.648C468.622 446.648 467.566 447.656 467.518 449.312H465.166C465.238 446.312 467.23 444.44 470.374 444.44C473.422 444.44 475.27 446.144 475.27 448.952C475.27 450.632 474.55 452.072 472.678 454.16L468.55 458.744H475.246V461H465.118ZM487.985 455.888V458.144H486.281V461H483.977V458.144H476.105V456.176L484.049 444.8H486.281V455.888H487.985ZM478.649 455.888H483.977V448.376H483.881L478.649 455.888Z" fill="#FAF9F6"/>
<path d="M563.72 461V459.272L569.312 452.936C570.872 451.184 571.424 450.176 571.424 449.072C571.424 447.584 570.44 446.648 568.88 446.648C567.224 446.648 566.168 447.656 566.12 449.312H563.768C563.84 446.312 565.832 444.44 568.976 444.44C572.024 444.44 573.872 446.144 573.872 448.952C573.872 450.632 573.152 452.072 571.28 454.16L567.152 458.744H573.848V461H563.72ZM581.751 450.344C584.751 450.344 586.695 452.432 586.695 455.624C586.695 459.176 584.559 461.36 581.055 461.36C578.391 461.36 576.399 460.16 575.439 458L577.431 456.776C578.271 458.432 579.399 459.152 581.055 459.152C583.047 459.152 584.247 457.832 584.247 455.672C584.247 453.632 583.047 452.36 581.151 452.36C579.999 452.36 578.919 452.864 578.367 453.68H576.279L577.119 444.8H585.399V447.056H579.015L578.559 451.4H578.607C579.327 450.752 580.527 450.344 581.751 450.344ZM601.61 453.488V455.792H595.346V453.488H601.61ZM615.617 444.44C618.617 444.44 620.585 446.096 620.585 448.592C620.585 450.488 619.505 451.904 617.681 452.336V452.384C619.913 452.648 621.161 454.112 621.161 456.488C621.161 459.512 619.145 461.36 615.809 461.36C612.473 461.36 610.457 459.608 610.361 456.656H612.713C612.833 458.24 613.985 459.152 615.809 459.152C617.705 459.152 618.689 458.192 618.689 456.344C618.689 454.352 617.561 453.536 614.873 453.584H614.105V451.472H614.873C617.033 451.472 618.137 450.632 618.137 449C618.137 447.488 617.225 446.648 615.569 446.648C613.889 446.648 612.905 447.464 612.857 448.928H610.505C610.601 446.168 612.569 444.44 615.617 444.44ZM634.352 455.888V458.144H632.648V461H630.344V458.144H622.472V456.176L630.416 444.8H632.648V455.888H634.352ZM625.016 455.888H630.344V448.376H630.248L625.016 455.888Z" fill="#FAF9F6"/>
<path d="M704.976 444.44C707.976 444.44 709.944 446.096 709.944 448.592C709.944 450.488 708.864 451.904 707.04 452.336V452.384C709.272 452.648 710.52 454.112 710.52 456.488C710.52 459.512 708.504 461.36 705.168 461.36C701.832 461.36 699.816 459.608 699.72 456.656H702.072C702.192 458.24 703.344 459.152 705.168 459.152C707.064 459.152 708.048 458.192 708.048 456.344C708.048 454.352 706.92 453.536 704.232 453.584H703.464V451.472H704.232C706.392 451.472 707.496 450.632 707.496 449C707.496 447.488 706.584 446.648 704.928 446.648C703.248 446.648 702.264 447.464 702.216 448.928H699.864C699.96 446.168 701.928 444.44 704.976 444.44ZM718.032 450.344C721.032 450.344 722.976 452.432 722.976 455.624C722.976 459.176 720.84 461.36 717.336 461.36C714.672 461.36 712.68 460.16 711.72 458L713.712 456.776C714.552 458.432 715.68 459.152 717.336 459.152C719.328 459.152 720.528 457.832 720.528 455.672C720.528 453.632 719.328 452.36 717.432 452.36C716.28 452.36 715.2 452.864 714.648 453.68H712.56L713.4 444.8H721.68V447.056H715.296L714.84 451.4H714.888C715.608 450.752 716.808 450.344 718.032 450.344ZM737.891 453.488V455.792H731.627V453.488H737.891ZM758.282 455.888V458.144H756.578V461H754.274V458.144H746.402V456.176L754.346 444.8H756.578V455.888H758.282ZM748.946 455.888H754.274V448.376H754.178L748.946 455.888ZM771.243 455.888V458.144H769.539V461H767.235V458.144H759.363V456.176L767.307 444.8H769.539V455.888H771.243ZM761.907 455.888H767.235V448.376H767.139L761.907 455.888Z" fill="#FAF9F6"/>
<path d="M868.36 455.888V458.144H866.656V461H864.352V458.144H856.48V456.176L864.424 444.8H866.656V455.888H868.36ZM859.024 455.888H864.352V448.376H864.256L859.024 455.888ZM875.524 450.344C878.524 450.344 880.468 452.432 880.468 455.624C880.468 459.176 878.332 461.36 874.828 461.36C872.164 461.36 870.172 460.16 869.212 458L871.204 456.776C872.044 458.432 873.172 459.152 874.828 459.152C876.82 459.152 878.02 457.832 878.02 455.672C878.02 453.632 876.82 452.36 874.924 452.36C873.772 452.36 872.692 452.864 872.14 453.68H870.052L870.892 444.8H879.172V447.056H872.788L872.332 451.4H872.38C873.1 450.752 874.3 450.344 875.524 450.344ZM888.878 448.016V453.296H894.134V454.4H888.878V459.68H887.678V454.4H882.422V453.296H887.678V448.016H888.878Z" fill="#FAF9F6"/>
<path d="M1025.72 194.191C1031.4 220.715 1023.14 248.965 1003.23 277.37C983.316 305.776 951.782 334.293 911.013 361.312C829.476 415.347 711.09 463.33 575.181 492.43C439.272 521.531 311.618 526.229 215.105 510.316C166.847 502.36 126.401 489.254 96.6045 471.492C66.8093 453.729 47.7066 431.338 42.0274 404.814C36.3482 378.29 44.6078 350.04 64.518 321.635C84.4286 293.229 115.963 264.712 156.732 237.693C238.269 183.658 356.655 135.675 492.564 106.575C628.473 77.4744 756.127 72.7765 852.64 88.689C900.898 96.6455 941.344 109.751 971.14 127.513C1000.94 145.276 1020.04 167.667 1025.72 194.191Z" stroke="#282828"/>
<path d="M1035.09 257.242C1037.37 284.271 1025.6 311.25 1002.26 336.909C978.914 362.568 944.027 386.868 900.167 408.514C812.451 451.803 688.947 484.428 550.449 496.106C411.952 507.783 284.728 496.299 191.002 468.307C144.138 454.311 105.674 436.196 78.364 414.808C51.0545 393.42 34.9371 368.792 32.6581 341.763C30.379 314.733 42.1453 287.755 65.488 262.096C88.8313 236.437 123.719 212.137 167.578 190.491C255.294 147.202 378.798 114.577 517.296 102.899C655.794 91.2216 783.017 102.706 876.743 130.697C923.607 144.693 962.071 162.809 989.381 184.197C1016.69 205.585 1032.81 230.213 1035.09 257.242Z" stroke="#282828"/>
<path d="M44.4431 351.526H40.5569L37.1164 365.645L28.0203 370.756L24.9172 372.5L28.0203 374.244L37.1164 379.355L40.5569 393.474H44.4431L47.8836 379.355L56.9797 374.244L60.0828 372.5L56.9797 370.756L47.8836 365.645L44.4431 351.526Z" fill="#EF8BF8" stroke="#161615" stroke-width="4"/>
<path d="M1026.94 212.521H1023.06L1020.84 221.528L1015.03 224.751L1011.88 226.5L1015.03 228.249L1020.84 231.472L1023.06 240.479H1026.94L1029.16 231.472L1034.97 228.249L1038.12 226.5L1034.97 224.751L1029.16 221.528L1026.94 212.521Z" fill="#9B9AF7" stroke="#161615" stroke-width="4"/>
</svg>
