<svg width="130" height="119" viewBox="0 0 130 119" fill="none" xmlns="http://www.w3.org/2000/svg">
<mask id="mask0_242_267" style="mask-type:luminance" maskUnits="userSpaceOnUse" x="14" y="18" width="99" height="86">
<path d="M111.789 41.3035C110.751 34.3012 107.001 27.9886 101.351 23.7304C95.7645 19.5306 88.4098 17.4107 80.1622 18.5176C75.9099 19.0963 72.2697 20.7985 69.318 22.7953C67.4107 24.113 65.6416 25.6205 64.0377 27.2948L61.8732 29.5401L59.3592 27.6961C57.4914 26.3234 55.4896 25.1438 53.3843 24.175C50.1291 22.7137 46.2564 21.6615 41.9583 21.8238C33.6508 22.1418 26.7669 25.4928 21.9781 30.5937C17.1423 35.7555 14.535 42.6176 14.7214 49.6918C14.8288 53.9987 15.9455 58.0022 17.6182 61.6392C21.2436 69.5519 27.6093 76.0376 32.6406 80.6131C42.7939 89.8401 57.5279 98.7212 66.1043 102.743L68.2942 103.765L70.2633 102.378C78.029 96.95 91.0126 85.6736 99.4429 74.8436C103.61 69.4702 108.769 61.9917 110.99 53.5752C112.003 49.7025 112.415 45.5649 111.789 41.3035Z" fill="white"/>
</mask>
<g mask="url(#mask0_242_267)">
<path d="M115.904 7.99996L5 17.7334L9.37425 67.574L120.278 57.8406L115.904 7.99996Z" fill="#282828"/>
<path d="M120.216 57.1379L9.3125 66.8713L13.6868 116.713L124.591 106.979L120.216 57.1379Z" fill="#282828"/>
</g>
<mask id="mask1_242_267" style="mask-type:luminance" maskUnits="userSpaceOnUse" x="18" y="11" width="98" height="87">
<path d="M115.659 34.627C114.621 27.6247 110.871 21.3121 105.221 17.0539C99.6346 12.8541 92.2799 10.7342 84.0323 11.8411C79.7801 12.4198 76.1398 14.122 73.1881 16.1188C71.2808 17.4365 69.5117 18.944 67.9078 20.6183L65.7433 22.8636L63.2293 21.0195C61.3615 19.6469 59.3597 18.4672 57.2544 17.4985C53.9992 16.0371 50.1265 14.985 45.8284 15.1473C37.5209 15.4653 30.637 18.8162 25.8482 23.9172C21.0125 29.079 18.4051 35.9411 18.5916 43.0153C18.6989 47.3222 19.8156 51.3256 21.4883 54.9626C25.1137 62.8754 31.4794 69.3611 36.5107 73.9366C46.664 83.1636 61.3981 92.0447 69.9744 96.0661L72.1643 97.0885L74.1334 95.7011C81.8991 90.2735 94.8827 78.9971 103.313 68.1671C107.481 62.7937 112.639 55.3152 114.86 46.8987C115.873 43.026 116.285 38.8884 115.659 34.627Z" fill="white"/>
</mask>
<g mask="url(#mask1_242_267)">
<path d="M119.774 1.32344L8.87012 11.0569L13.2444 60.8975L124.148 51.1641L119.774 1.32344Z" fill="#284A9F"/>
<path d="M124.086 50.4614L13.1826 60.1948L17.5569 110.036L128.461 100.303L124.086 50.4614Z" fill="#FDD109"/>
</g>
</svg>
